<svg width="20" height="20" viewBox="0 0 20 20" fill="none" xmlns="http://www.w3.org/2000/svg">
    <path d="M18.333 5v2.017c0 1.316-.833 2.15-2.15 2.15h-2.85V3.342c0-.925.759-1.675 1.684-1.675a3.35 3.35 0 0 1 2.341.975c.6.608.975 1.441.975 2.358z" fill="#555775"/>
    <path opacity=".4" d="M1.667 5.833V17.5A.83.83 0 0 0 3 18.167L4.425 17.1a.84.84 0 0 1 1.1.083l1.383 1.392a.84.84 0 0 0 1.184 0l1.4-1.4a.826.826 0 0 1 1.083-.075L12 18.167a.835.835 0 0 0 1.333-.667V3.333c0-.916.75-1.666 1.667-1.666H5C2.5 1.667 1.667 3.158 1.667 5v.833z" fill="#555775"/>
    <path d="M10 8.125H5a.63.63 0 0 1-.625-.625A.63.63 0 0 1 5 6.875h5a.63.63 0 0 1 .625.625.63.63 0 0 1-.625.625zM9.375 11.458h-3.75A.63.63 0 0 1 5 10.833a.63.63 0 0 1 .625-.625h3.75a.63.63 0 0 1 .625.625.63.63 0 0 1-.625.625z" fill="#555775"/>
</svg>
